# xmcd
#
# Track frame offsets:
#	150
#	19150
#	44207
#	63185
#
# Disc length: 1176 seconds
#
# Revision: 1
# Processed by: cddbd v1.5.1PL0 Copyright (c) Steve Scherf et al.
# Submitted via: CDex 1.50Beta5
#
DISCID=32049604
DTITLE=村田亮 - アイコトバ
DYEAR=2002
DGENRE=
TTITLE0=アイコトバ
TTITLE1=優しい空
TTITLE2=アイコトバ-Back track version-
TTITLE3=優しい空-Back track version-
EXTD=
EXTT0=
EXTT1=
EXTT2=
EXTT3=
PLAYORDER=
